<svg width="32" height="20" viewBox="0 0 32 20" fill="none" xmlns="http://www.w3.org/2000/svg">
<g clip-path="url(#clip0)">
<path d="M9.04906 6.92987C9.04906 7.32199 9.09156 7.63987 9.16568 7.87299C9.25979 8.13527 9.3731 8.39025 9.50468 8.63587C9.55768 8.72062 9.57881 8.80537 9.57881 8.87962C9.57881 8.98549 9.51531 9.09149 9.37756 9.19749L8.71006 9.64249C8.61468 9.70612 8.51931 9.73787 8.43443 9.73787C8.32856 9.73787 8.22256 9.68487 8.11656 9.58949C7.97381 9.43606 7.8461 9.2693 7.73518 9.09149C7.62918 8.91149 7.52318 8.70999 7.40668 8.46637C6.58018 9.44112 5.54168 9.92862 4.29143 9.92862C3.40143 9.92862 2.69143 9.67424 2.17218 9.16574C1.65306 8.65699 1.38818 7.97887 1.38818 7.13124C1.38818 6.23062 1.70606 5.49949 2.35243 4.94849C2.99868 4.39749 3.85706 4.12199 4.94843 4.12199C5.30868 4.12199 5.67956 4.15374 6.07156 4.20674C6.46368 4.25974 6.86631 4.34449 7.29018 4.43987V3.66637C7.29018 2.86099 7.12056 2.29949 6.79206 1.97099C6.45306 1.64249 5.88081 1.48349 5.06493 1.48349C4.69406 1.48349 4.31268 1.52599 3.92056 1.62137C3.52856 1.71662 3.14706 1.83324 2.77618 1.98162C2.60668 2.05574 2.47956 2.09812 2.40531 2.11937C2.33118 2.14062 2.27818 2.15112 2.23581 2.15112C2.08743 2.15112 2.01331 2.04512 2.01331 1.82262V1.30337C2.01331 1.13387 2.03456 1.00674 2.08743 0.932617C2.14043 0.858367 2.23581 0.784242 2.38418 0.710117C2.75506 0.519367 3.20006 0.360367 3.71918 0.233242C4.23856 0.0954922 4.78956 0.0319922 5.37231 0.0319922C6.63331 0.0319922 7.55518 0.317992 8.14856 0.890242C8.73131 1.46237 9.02806 2.33124 9.02806 3.49687V6.92987H9.04931H9.04906ZM4.74706 8.54049C5.09681 8.54049 5.45706 8.47699 5.83843 8.34974C6.21993 8.22262 6.55906 7.98949 6.84506 7.67162C7.01468 7.47037 7.14181 7.24787 7.20531 6.99349C7.26893 6.73924 7.31131 6.43187 7.31131 6.07162V5.62662C6.98997 5.54841 6.6645 5.48827 6.33643 5.44649C6.00609 5.40453 5.67344 5.38328 5.34043 5.38287C4.63043 5.38287 4.11131 5.52062 3.76168 5.80674C3.41193 6.09287 3.24243 6.49549 3.24243 7.02524C3.24243 7.52324 3.36956 7.89412 3.63443 8.14849C3.88881 8.41337 4.25968 8.54049 4.74706 8.54049ZM13.2557 9.68487C13.0649 9.68487 12.9378 9.65312 12.8531 9.57887C12.7683 9.51537 12.6941 9.36699 12.6306 9.16574L10.1406 0.974992C10.0768 0.762992 10.0451 0.625242 10.0451 0.551117C10.0451 0.381617 10.1298 0.286117 10.2994 0.286117H11.3378C11.5391 0.286117 11.6769 0.317992 11.7511 0.392117C11.8358 0.455742 11.8994 0.604117 11.9629 0.805367L13.7431 7.81999L15.3961 0.805367C15.4491 0.593492 15.5127 0.455742 15.5973 0.392117C15.6822 0.328617 15.8306 0.286242 16.0213 0.286242H16.8689C17.0702 0.286242 17.2081 0.317992 17.2927 0.392117C17.3776 0.455742 17.4517 0.604117 17.4941 0.805367L19.1683 7.90474L21.0013 0.805367C21.0648 0.593492 21.1391 0.455742 21.2132 0.392117C21.2979 0.328617 21.4357 0.286242 21.6264 0.286242H22.6118C22.7814 0.286242 22.8768 0.370992 22.8768 0.551117C22.8768 0.604117 22.8662 0.657117 22.8556 0.720617C22.8449 0.784242 22.8238 0.868992 22.7814 0.985617L20.2277 9.17624C20.1642 9.38824 20.0901 9.52599 20.0052 9.58949C19.9204 9.65312 19.7827 9.69549 19.6027 9.69549H18.6914C18.4901 9.69549 18.3523 9.66374 18.2674 9.58949C18.1827 9.51537 18.1086 9.37762 18.0662 9.16574L16.4237 2.33124L14.7919 9.15499C14.7391 9.36699 14.6754 9.50474 14.5907 9.57887C14.5059 9.65312 14.3576 9.68487 14.1669 9.68487H13.2556H13.2557ZM26.8716 9.97099C26.3206 9.97099 25.7696 9.90737 25.2398 9.78024C24.7099 9.65312 24.2968 9.51524 24.0213 9.35649C23.8517 9.26099 23.7351 9.15512 23.6928 9.05974C23.6515 8.96621 23.6299 8.86522 23.6292 8.76299V8.22262C23.6292 8.00012 23.7139 7.89412 23.8729 7.89412C23.9378 7.89436 24.0022 7.90512 24.0637 7.92599C24.1272 7.94724 24.2226 7.98949 24.3286 8.03187C24.7028 8.19648 25.0935 8.32081 25.4941 8.40274C25.9091 8.48697 26.3315 8.52956 26.7551 8.52987C27.4226 8.52987 27.9418 8.41337 28.3021 8.18024C28.6623 7.94712 28.8531 7.60812 28.8531 7.17362C28.8531 6.87699 28.7577 6.63324 28.5669 6.43187C28.3762 6.23062 28.0159 6.05049 27.4968 5.88087L25.9603 5.40412C25.1868 5.16037 24.6147 4.80012 24.2649 4.32324C23.9153 3.85699 23.7352 3.33787 23.7352 2.78687C23.7352 2.34187 23.8306 1.94974 24.0213 1.61062C24.2119 1.27162 24.4663 0.974992 24.7842 0.741867C25.1021 0.498117 25.4623 0.317992 25.8862 0.190867C26.3099 0.0637422 26.7549 0.0107422 27.2212 0.0107422C27.4543 0.0107422 27.6981 0.0213672 27.9312 0.0531172C28.1749 0.0848672 28.3974 0.127242 28.6199 0.169617C28.8318 0.222617 29.0332 0.275617 29.2239 0.339242C29.4147 0.402742 29.5629 0.466367 29.6689 0.529867C29.8173 0.614742 29.9232 0.699492 29.9868 0.794867C30.0504 0.879617 30.0822 0.996117 30.0822 1.14449V1.64249C30.0822 1.86499 29.9974 1.98162 29.8384 1.98162C29.7537 1.98162 29.6159 1.93912 29.4359 1.85437C28.8318 1.57887 28.1537 1.44112 27.4014 1.44112C26.7974 1.44112 26.3206 1.53649 25.9921 1.73787C25.6637 1.93912 25.4941 2.24649 25.4941 2.68087C25.4941 2.97762 25.6001 3.23187 25.8119 3.43324C26.0239 3.63449 26.4159 3.83587 26.9776 4.01599L28.4822 4.49287C29.2451 4.73662 29.7961 5.07562 30.1246 5.50999C30.4531 5.94449 30.6121 6.44249 30.6121 6.99349C30.6121 7.44912 30.5166 7.86237 30.3364 8.22262C30.1458 8.58287 29.8914 8.90074 29.5629 9.15512C29.2344 9.41999 28.8424 9.61074 28.3868 9.74849C27.9099 9.89687 27.4119 9.97099 26.8716 9.97099Z" fill="#252F3E"/>
<path d="M28.8741 15.1205C25.3881 17.6954 20.3231 19.0623 15.9682 19.0623C9.86485 19.0623 4.3656 16.8053 0.211972 13.0543C-0.116528 12.7577 0.180097 12.355 0.572097 12.588C5.06485 15.1948 10.6066 16.7735 16.3391 16.7735C20.2066 16.7735 24.4556 15.9683 28.3656 14.3153C28.9483 14.0503 29.4463 14.6968 28.8741 15.1205ZM30.3258 13.4675C29.8808 12.8954 27.3801 13.192 26.2463 13.3298C25.9072 13.3723 25.8542 13.0755 26.1616 12.853C28.1536 11.4543 31.4278 11.857 31.8092 12.3232C32.1907 12.8 31.7032 16.0742 29.8383 17.6424C29.5523 17.8862 29.2768 17.759 29.404 17.4412C29.8277 16.392 30.7708 14.0292 30.3258 13.4675Z" fill="#FF9900"/>
</g>
<defs>
<clipPath id="clip0">
<rect width="32" height="19.125" fill="white"/>
</clipPath>
</defs>
</svg>
