<svg width="30" height="24" viewBox="0 0 30 24" fill="none" xmlns="http://www.w3.org/2000/svg">
<path d="M10.8075 5.57405L8.81042 5.89839L6.98848 6.69725L5.44106 7.67064L3.96842 9.46762L3.13659 10.3488L2.33197 10.6453L2.11927 10.1253L2.49131 9.58834L2.57493 8.83106L2.82402 8.84119L3.09631 9.08957L3.02282 8.31816L2.72097 8.11559L2.73039 7.82162L2.01539 8.22606L1.368 8.98993L1.23291 9.67254L1.50991 10.2192L1.76807 11.1479L2.29322 11.3965L2.84558 11.3694L3.36943 11.0651L3.02 12.8372L3.36943 14.809L2.98478 15.7194L1.72485 17.0769L1.94885 17.8879L2.54573 18.8276L3.67105 19.6194L4.26792 19.7013L4.93157 19.7236L4.51748 21.4235L6.04005 22.0473L7.9369 22.297L8.58583 21.8728L8.63577 20.7245L9.35972 19.5264L9.40965 18.5779L11.1568 18.7028L12.7791 18.5531L11.1568 19.5264L11.4315 20.6996L12.4547 22.297L13.453 22.7212L14.2518 22.3967L14.5761 21.7478L16.2485 20.4749L16.573 20.7493L19.1938 20.8493L19.7178 20.4251L19.7677 19.6761L19.5931 19.3518L19.4682 17.33L18.5946 15.5829L18.7445 14.8091L19.2685 15.0837L20.7412 16.4564L21.465 16.5064L22.2636 16.1819L23.0625 15.5829L23.4617 14.285L25.808 14.4347L27.2307 13.8858L28.3788 12.8124L29.2025 11.2648L29.402 9.44289L29.2273 7.32121L28.7781 5.42447L28.3288 4.82548L27.705 4.62574L26.6066 5.82372L25.6083 6.17316L24.7346 4.72549L23.8611 3.92687L23.3868 3.62738L21.4899 2.05487L19.9674 1.23117L18.4448 1.10645L16.6728 1.40594L15.1253 1.97985L14.052 2.85349L13.2035 3.87694L12.33 4.12662L10.8075 5.57405Z" fill="#FFE609"/>
<path d="M29.6142 7.25079C29.4752 6.37421 29.2447 5.5233 28.9249 4.91147C28.886 4.83668 28.8269 4.76084 28.7536 4.68853C28.5947 4.53189 28.3595 4.38349 28.1166 4.29999C27.8591 4.21143 27.5877 4.19341 27.3721 4.306C27.3162 4.33544 27.2641 4.37313 27.2179 4.42024C27.0783 4.56157 26.9605 4.73351 26.8426 4.90558C26.7115 5.09732 26.5796 5.28999 26.4218 5.42461C26.2389 5.58101 26.0101 5.67593 25.7942 5.76261C25.7033 5.5422 25.5941 5.32981 25.4676 5.1277C25.3201 4.89239 25.152 4.67204 24.9671 4.45168C24.8318 4.28938 24.6785 4.14306 24.51 4.01557C24.3506 3.89391 24.1873 3.79145 23.9972 3.6725C23.4876 3.35333 23.0536 2.97269 22.611 2.58428C22.4099 2.40785 22.2067 2.22978 22.0081 2.06596C20.954 1.19679 19.9708 0.775283 18.9193 0.709212C17.875 0.643495 16.7723 0.93039 15.4704 1.47851C14.8419 1.74291 14.3753 2.05548 13.9688 2.43129C13.5805 2.7905 13.2508 3.20412 12.8884 3.6871C12.6776 3.70206 12.4908 3.73327 12.3001 3.80959C12.09 3.89368 11.8785 4.02982 11.6251 4.25347C11.4487 4.40912 11.2759 4.56882 11.1069 4.73245C10.952 4.88268 10.7999 5.03569 10.6506 5.19142C9.46535 5.38185 8.49961 5.59208 7.63468 5.92703C6.75021 6.26974 5.97055 6.74107 5.16981 7.45101C4.85452 7.72954 4.5671 8.03811 4.3116 8.37235C4.06805 8.69139 3.85959 9.02681 3.67669 9.38048C3.51652 9.55773 3.35599 9.73663 3.18228 9.89315C3.01292 10.0457 2.83237 10.1742 2.63004 10.252L2.63016 10.2521C2.5125 10.2975 2.46386 10.324 2.45856 10.3222C2.45267 10.3189 2.44938 10.3012 2.44113 10.2687C2.73168 9.99149 2.77737 9.58411 2.80423 9.17968C2.83909 9.22137 2.87253 9.27272 2.90728 9.32642C2.94567 9.38566 2.98501 9.44679 3.03212 9.50626L3.22939 9.75512L3.29864 9.44467C3.35682 9.18451 3.40039 8.83814 3.33255 8.53782C3.28874 8.3429 3.19829 8.16919 3.04071 8.04611C3.05579 8.00678 3.07004 7.9705 3.08405 7.9347C3.13352 7.8081 3.18451 7.67819 3.22774 7.55547L3.31324 7.31227L3.05885 7.35632C2.72037 7.41521 1.993 7.81493 1.48069 8.34644C1.29049 8.54394 1.1269 8.76217 1.01961 8.99113C0.907963 9.22938 0.857909 9.47871 0.901249 9.72815C0.938937 9.94626 1.04811 10.1604 1.24632 10.3622C1.28248 10.5079 1.31581 10.6343 1.3515 10.7483C1.39236 10.878 1.43629 10.994 1.49129 11.1082C1.64039 11.4182 1.87806 11.6076 2.15318 11.6959C2.37424 11.7669 2.61873 11.7704 2.85852 11.7179C2.80983 12.0036 2.78048 12.2922 2.77066 12.5818C2.75547 12.9863 2.77031 13.4333 2.81482 13.952C2.8246 14.0658 2.83932 14.191 2.85828 14.3272C2.87477 14.4433 2.89432 14.5573 2.9154 14.6705C2.87065 14.7927 2.82554 14.9152 2.78055 15.0375L2.57127 15.6071L2.11078 16.0635C1.96745 16.2052 1.82412 16.3472 1.68091 16.4891C1.66913 16.5009 1.62072 16.5473 1.57691 16.5896C1.2866 16.869 1.22913 16.9244 1.31157 17.416C1.36438 17.7306 1.46708 18.0348 1.61578 18.317C1.75828 18.5884 1.94955 18.8527 2.19499 19.0989C2.5012 19.4058 3.00314 19.7871 3.52865 19.9869C3.82897 20.1009 4.13847 20.1567 4.42902 20.1101C4.41418 20.1548 4.39981 20.1993 4.38344 20.2443C4.33746 20.3719 4.28638 20.4975 4.23034 20.621C3.87384 21.4024 4.23976 21.8105 4.80931 22.0702C5.09373 22.1997 5.43186 22.2878 5.74596 22.3698C5.81026 22.3863 5.87457 22.4032 5.95559 22.4251C6.32776 22.5257 6.97092 22.7105 7.55837 22.7476C8.19952 22.7881 8.77779 22.6557 8.93278 22.0803C8.99402 21.8522 9.0297 21.6775 9.04419 21.5064C9.0575 21.3476 9.05243 21.1872 9.03383 20.9887C9.21661 20.5835 9.2941 20.4696 9.42778 20.2742C9.45392 20.2356 9.4856 20.1894 9.49514 20.1748C9.63847 19.9625 9.7056 19.8118 9.72998 19.642C9.75354 19.4782 9.73352 19.315 9.70395 19.0655C9.70113 19.0419 9.69689 19.0072 9.69065 18.9614C10.0598 19.0094 10.4316 19.0349 10.8038 19.0377C10.9906 19.0389 11.1773 19.0334 11.364 19.0236C11.3163 19.048 11.2695 19.0723 11.2184 19.0985L11.1489 19.1342C10.6538 19.3888 10.6332 19.8711 10.7882 20.3673C10.9279 20.8147 11.2155 21.2715 11.3959 21.5494C11.7751 22.1339 12.137 22.6286 12.5758 22.8975C13.0358 23.1794 13.5613 23.2126 14.2395 22.8455C14.5846 22.6587 14.6934 22.4682 14.8399 22.2115C14.8848 22.1332 14.9343 22.0478 14.9894 21.9636C15.1319 21.8691 15.4867 21.5765 15.835 21.2885C15.9536 21.1905 16.0721 21.093 16.2057 20.9841C16.2978 21.0518 16.409 21.0988 16.5434 21.1308C16.7179 21.1726 16.9258 21.1915 17.1749 21.2094C17.3613 21.223 17.9693 21.2226 18.362 21.2224C18.4833 21.2224 18.584 21.2224 18.6445 21.2228C19.0499 21.2253 19.3772 21.2039 19.6246 21.0638C19.8881 20.9143 20.0444 20.6497 20.0786 20.1751C20.0934 19.9643 20.0962 19.8342 20.0669 19.7015C20.0396 19.5771 19.9862 19.4644 19.8946 19.2996C19.8891 19.0944 19.8836 18.8893 19.8781 18.6842C19.8725 18.4667 19.8663 18.2489 19.8607 18.0314C19.8537 17.7749 19.8255 17.5664 19.7734 17.3614C19.7218 17.1577 19.6481 16.9619 19.5494 16.7268C19.488 16.5787 19.43 16.4293 19.3754 16.2786L19.2331 16.3306L19.255 16.3226L19.3754 16.2786V16.278C19.2906 16.0493 19.2069 15.8266 19.0899 15.5883C19.0974 15.5424 19.1051 15.4929 19.1125 15.4401L19.3386 15.658L19.6719 15.9792C19.9261 16.224 20.1584 16.4467 20.4314 16.6076C20.7137 16.7743 21.0311 16.871 21.4422 16.8514C21.8725 16.8312 22.333 16.6499 22.7121 16.3702C23.0788 16.0994 23.3732 15.7343 23.496 15.3303L23.6025 14.9798L23.6875 14.7001C24.291 14.8023 24.9387 14.8353 25.5643 14.7698C26.168 14.7063 26.7512 14.5526 27.2542 14.2843C27.9936 13.8898 28.548 13.3087 28.9464 12.6187H28.9466C29.3918 11.8475 29.6412 10.9387 29.7358 10.0036C29.8118 9.25364 29.7703 8.23408 29.6142 7.25079ZM21.7956 13.5538C21.4478 13.4367 21.206 13.2659 20.9005 13.0734C20.9837 13.4482 21.0215 13.8447 20.9108 14.2188C20.735 14.8126 20.4512 15.784 21.2574 15.9633C21.5642 16.0314 21.7034 16.0216 22.1364 15.798C21.7859 15.8774 21.6092 15.8581 21.3682 15.8134C21.1498 15.7732 21.0341 15.6346 20.9731 15.471C21.0494 15.526 21.1737 15.5559 21.3864 15.6071C21.984 15.7513 22.5535 15.4635 22.6649 15.0491C22.7296 14.807 22.7187 14.6798 22.8564 14.3498C22.98 14.3881 23.1078 14.4228 23.239 14.4546L23.0169 15.1788C22.8249 15.8054 22.0765 16.3106 21.4158 16.2989C20.805 16.2882 20.4176 15.9056 19.9959 15.5305C19.7055 15.2718 19.4259 15.0246 19.1489 14.7797C18.3887 14.5398 17.7793 14.2595 17.0737 13.7371C17.5759 14.3272 17.9164 14.6539 18.6167 14.9475C18.5149 15.9863 18.1538 16.7438 17.8461 17.7379C17.7066 18.1873 16.607 19.9886 16.3022 20.1642C16.0849 20.2894 14.7237 21.4358 14.4678 21.5872C14.277 21.8404 14.1096 22.1904 13.8228 22.3419C12.9492 22.8039 12.3878 21.9193 11.9176 21.1723C11.7036 20.8319 11.1091 19.8516 11.6273 19.5769C12.1172 19.3175 12.3917 19.1321 12.8916 18.8037C12.9651 18.9376 13.091 19.067 13.1731 19.2006L13.1187 18.7618C13.0857 18.4968 13.0871 18.2816 13.1081 18.015C13.1286 17.7569 13.1488 17.4987 13.1691 17.2404C13.0938 17.5029 12.9435 17.7653 12.8685 18.0276C12.8385 18.1327 12.8136 18.2175 12.7993 18.2961C11.6776 18.5253 10.564 18.5396 9.44214 18.3395C9.37054 17.9241 9.28339 17.4913 9.21025 17.1809C9.18811 17.5284 9.20236 18.4892 9.20059 19.0271C9.19918 19.4438 9.18175 19.5866 8.9667 19.9411C8.76554 20.273 8.68039 20.3483 8.39856 20.9092C8.42211 21.2631 8.42247 21.4968 8.32848 21.8327C8.1722 22.3911 6.59487 21.9585 6.17889 21.8445C5.66646 21.7044 4.60721 21.4959 4.87361 20.8128C5.10798 20.2117 5.25661 19.5779 5.3712 18.7367C4.43244 17.3843 3.5595 15.5312 3.39191 13.8892C3.26177 12.6143 3.33986 11.8296 3.61568 11.0497C4.05285 9.814 4.66457 8.74439 5.64585 7.88312C6.96962 6.72152 8.20694 6.25514 10.1445 5.96012C9.67863 6.48185 9.21767 7.03327 8.71525 7.62461C8.20659 8.22325 7.9045 8.82789 7.58145 9.48283C7.13533 10.3872 7.14498 10.7313 7.73632 11.5254C8.24593 12.2096 8.52104 12.5176 8.74363 13.1871C8.55991 13.5659 8.49301 13.8861 8.4313 14.4033C9.05526 15.0855 9.51905 15.5528 10.1249 15.6968C10.7193 15.8381 11.2155 15.8108 11.7473 15.5389C12.9282 14.9352 14.0209 14.1556 15.3531 14.1233C15.9694 12.6083 15.9071 11.3422 15.6112 9.87631C15.4091 8.87512 15.328 7.92716 15.2652 6.90654C15.0154 7.95767 14.9684 8.88195 15.1538 9.92907C15.3773 11.1908 15.551 12.5848 14.9294 13.6938C13.7247 13.786 12.6924 14.5189 11.6068 15.0812C11.1703 15.3073 10.716 15.3293 10.233 15.1967C9.78463 15.0735 9.48207 14.7768 8.99908 14.2198C8.99143 13.6605 9.11768 13.4024 9.37454 12.8958C9.78722 12.0823 10.2426 11.3252 10.7425 10.5249C10.1305 11.2636 9.55061 11.8808 9.06892 12.6236C8.88473 12.099 8.62139 11.8326 8.18527 11.2419C7.75929 10.6649 7.71477 10.4124 8.03335 9.74464C8.35357 9.07368 8.62515 8.48399 9.17033 7.89537C10.1122 6.87816 10.9751 5.74613 12.0051 4.74435C12.5644 4.20047 12.7915 4.2192 13.5333 4.10684C14.2039 4.00509 14.8585 3.87683 15.5423 3.71808C14.881 3.77967 14.2417 3.80228 13.5979 3.81818L13.5779 3.81877C14.2115 3.00979 14.579 2.55895 15.6078 2.11189C18.1409 1.01189 19.7503 0.892938 21.7401 2.56543C22.2558 2.99907 22.7062 3.41987 23.229 3.7938C23.0394 3.81006 22.876 3.84409 22.6599 3.92889C22.9229 3.87872 23.2266 3.92842 23.4996 3.97835C23.5762 4.02805 23.6551 4.07658 23.7355 4.12404C24.1048 4.34157 24.3143 4.46169 24.564 4.80948C24.8278 5.17705 25.0478 5.54438 25.2415 5.94929C25.1145 5.90382 25.008 5.86555 24.913 5.8374C24.8072 5.78887 24.691 5.76724 24.5747 5.77443C24.4585 5.78162 24.3459 5.81741 24.2468 5.87862L24.2315 5.88569C24.0273 5.98521 23.7109 6.0985 23.4993 6.13289C23.6073 6.17011 23.8461 6.18412 23.9587 6.13949C23.9738 6.1336 23.9891 6.12889 24.0049 6.12524C23.9527 6.21409 23.9205 6.3133 23.9107 6.4159C23.8975 6.55136 23.9237 6.68775 23.9862 6.80867L23.9868 6.80997C24.0058 6.85496 24.0324 6.8963 24.0617 6.92621C23.965 6.9619 23.8662 7.00265 23.7643 7.04681C24.2364 6.97497 24.6621 6.9626 25.1227 7.02326C25.1531 7.16847 25.1837 7.3224 25.2122 7.47892L25.0409 7.49235C25.0363 7.49269 25.0317 7.49308 25.0272 7.49352C24.8092 7.31934 24.5663 7.34866 24.2345 7.42439C23.2255 7.6544 23.4625 8.22054 22.9985 9.07368C23.4804 8.48458 23.4446 7.86816 24.2301 7.68208C24.4131 7.63886 24.5377 7.58456 24.6616 7.60317C24.4386 7.71529 24.2459 7.90125 24.1693 8.11713C23.9538 8.7259 24.0876 9.2388 23.8507 9.80741C24.144 9.2991 24.1618 8.80304 24.4242 8.26812C24.5184 8.07615 24.8679 7.76876 25.0825 7.76405L25.2592 7.76016C25.311 8.09841 25.3424 8.43441 25.3224 8.71306C25.2858 9.22161 25.1536 9.97641 25.0746 10.2653C25.3403 9.92365 25.4614 9.20017 25.5781 8.69069C25.6996 8.16047 25.6689 7.52415 25.5626 6.95436C25.4165 6.1727 26.2216 6.29989 26.6889 5.9315C27.0325 5.66062 27.2691 5.22828 27.584 4.92183C27.8965 4.61798 28.3884 5.06446 28.5112 5.36136C29.044 6.65062 29.2868 8.67879 29.1462 9.97842C28.9881 11.4367 28.2838 13.0286 26.9976 13.7466C25.358 14.6617 23.4247 14.1026 21.7956 13.5538ZM19.4658 20.0306C19.4123 20.6323 19.2118 20.672 18.6834 20.6628C18.4434 20.6585 17.4876 20.6542 17.245 20.6333C16.9022 20.6038 16.7098 20.5732 16.6051 20.495C17.1436 20.0997 18.0584 18.4678 18.2368 17.906C18.4255 17.3124 18.632 16.7944 18.7855 16.2458C18.8562 16.4751 18.9119 16.7023 19.0147 16.9459C19.1863 17.3529 19.2703 17.6043 19.2825 18.0409L19.3214 19.4227C19.469 19.6809 19.4919 19.736 19.4658 20.0305V20.0306ZM3.26107 15.4725C3.60296 16.6553 4.18547 17.8176 4.83122 18.7948V18.8119C4.79058 18.9799 4.74383 19.1434 4.64572 19.2747C4.18405 19.8923 3.01009 18.9858 2.6702 18.6391C2.29874 18.2596 2.05012 17.8106 1.99089 17.3892C1.94778 17.082 1.98971 17.0745 2.20405 16.8571L3.0711 15.9793L3.26107 15.4725ZM2.60802 8.03398C2.52039 8.22207 2.45821 8.36469 2.41593 8.51144C2.23185 9.14717 2.49919 9.71461 1.92199 10.1755C2.19322 10.7226 2.18073 10.941 2.81164 10.6881C3.05496 10.5904 3.25565 10.4537 3.4349 10.2919C3.34813 10.5173 3.26836 10.7454 3.1957 10.9757C3.18322 11.0146 3.17132 11.0538 3.1599 11.0927C2.70871 11.2842 2.11525 11.4058 1.88819 10.9317C1.77795 10.7014 1.71565 10.4755 1.63521 10.1846C0.892181 9.41487 2.0029 8.39849 2.60802 8.03398ZM2.97323 8.84944C2.88148 8.75758 2.80811 8.69552 2.68951 8.70894C2.69952 8.63121 2.71283 8.55619 2.73156 8.48576C2.74098 8.44949 2.75111 8.41392 2.76194 8.37824C2.91576 8.46786 2.95627 8.63027 2.97323 8.84933V8.84944ZM25.2533 5.97413C25.2813 6.03326 25.3089 6.09344 25.336 6.15433C25.3136 6.17082 25.2923 6.18813 25.2724 6.20638C25.2358 6.12095 25.1829 6.04343 25.1168 5.97814C25.1611 5.97649 25.2065 5.97508 25.2534 5.97413H25.2533ZM3.80164 9.46834L3.80153 9.46822V9.46834H3.80164ZM9.51352 18.7851H9.51375H9.51352ZM16.2104 20.7844H16.2103H16.2104ZM18.9322 15.611H18.9324L18.9323 15.6111L18.9322 15.611ZM2.6848 10.3937H2.68469L2.67962 10.3807L2.68469 10.3938L2.6848 10.3937ZM28.8132 12.5416L28.8167 12.5437L28.8132 12.5416Z" fill="#2B343D"/>
<path d="M21.1418 7.30538C21.0371 7.08595 20.8505 6.91639 20.622 6.83323C20.8223 6.72641 21.0188 6.61417 21.1722 6.47461C20.7229 6.6826 20.1998 6.63184 19.8142 6.89223C19.4747 7.12165 19.006 7.84855 18.6609 8.15676C18.9108 8.05972 19.1516 7.89189 19.3734 7.71511C19.3746 7.88302 19.4216 8.04743 19.5092 8.19066C19.5968 8.3339 19.7218 8.45055 19.8708 8.5281C19.7432 8.69519 19.6416 8.88062 19.5695 9.0781C20.2266 8.29938 21.1792 7.71123 22.075 7.45978C21.8246 7.45625 21.5282 7.503 21.2262 7.60229C21.2149 7.49928 21.1864 7.3989 21.1418 7.30538Z" fill="#2B343D"/>
</svg>
