<svg width="99" height="265" viewBox="0 0 99 265" fill="none" xmlns="http://www.w3.org/2000/svg">
<path d="M-98 65.4071L-60.3481 51.9211V89.6819L-98 103.168V65.4071Z" fill="#54BA7D"/>
<path d="M-98 173.295L-60.3481 159.809V197.57L-98 211.056V173.295Z" fill="#54BA7D"/>
<path d="M-98 119.351L-60.3481 105.865V143.626L-98 157.112V119.351Z" fill="#54BA7D"/>
<path d="M-98 227.239L-60.3481 213.753V251.514L-98 265V227.239Z" fill="#54BA7D"/>
<path d="M-44.2116 101.819L-6.55973 88.3333V126.094L-44.2116 139.58V101.819Z" fill="#54BA7D"/>
<path d="M-44.2116 209.707L-6.55973 196.221V233.982L-44.2116 247.468V209.707Z" fill="#54BA7D"/>
<path d="M-44.2116 47.8753L-6.55973 34.3893V72.1501L-44.2116 85.6361V47.8753Z" fill="#54BA7D"/>
<path d="M-44.2116 155.763L-6.55973 142.277V180.038L-44.2116 193.524V155.763Z" fill="#54BA7D"/>
<path d="M7.55972 31.0178L45.2116 17.5318V55.2926L7.55972 68.7786V31.0178Z" fill="#54BA7D"/>
<path d="M7.55972 138.906L45.2116 125.42V163.181L7.55972 176.667V138.906Z" fill="#54BA7D"/>
<path d="M7.55972 84.9618L45.2116 71.4758V109.237L7.55972 122.723V84.9618Z" fill="#54BA7D"/>
<path d="M7.55972 192.85L45.2116 179.364V217.125L7.55972 230.611V192.85Z" fill="#54BA7D"/>
<path d="M61.3481 67.43L99 53.944V91.7048L61.3481 105.191V67.43Z" fill="#54BA7D"/>
<path d="M61.3481 175.318L99 161.832V199.593L61.3481 213.079V175.318Z" fill="#54BA7D"/>
<path d="M61.3481 13.486L99 0V37.7608L61.3481 51.2468V13.486Z" fill="#54BA7D"/>
<path d="M61.3481 121.374L99 107.888V145.649L61.3481 159.135V121.374Z" fill="#54BA7D"/>
</svg>
