<svg width="253" height="393" viewBox="0 0 253 393" fill="none" xmlns="http://www.w3.org/2000/svg">
<path d="M-40 97L16 77V133L-40 153V97Z" fill="#5855FE"/>
<path d="M-40 257L16 237V293L-40 313V257Z" fill="#5855FE"/>
<path d="M-40 177L16 157V213L-40 233V177Z" fill="#5855FE"/>
<path d="M-40 337L16 317V373L-40 393V337Z" fill="#5855FE"/>
<path d="M40 151L96 131V187L40 207V151Z" fill="#5855FE"/>
<path d="M40 311L96 291V347L40 367V311Z" fill="#5855FE"/>
<path d="M40 71L96 51V107L40 127V71Z" fill="#5855FE"/>
<path d="M40 231L96 211V267L40 287V231Z" fill="#5855FE"/>
<path d="M117 46L173 26V82L117 102V46Z" fill="#5855FE"/>
<path d="M117 206L173 186V242L117 262V206Z" fill="#5855FE"/>
<path d="M117 126L173 106V162L117 182V126Z" fill="#5855FE"/>
<path d="M117 286L173 266V322L117 342V286Z" fill="#5855FE"/>
<path d="M197 100L253 80V136L197 156V100Z" fill="#5855FE"/>
<path d="M197 260L253 240V296L197 316V260Z" fill="#5855FE"/>
<path d="M197 20L253 0V56L197 76V20Z" fill="#5855FE"/>
<path d="M197 180L253 160V216L197 236V180Z" fill="#5855FE"/>
<path d="M-39 124.303C-39 123.865 -38.7143 123.477 -38.2954 123.348L226.705 41.4006C227.348 41.2017 228 41.6826 228 42.356V353.697C228 354.135 227.714 354.523 227.295 354.652L-37.7046 436.599C-38.3479 436.798 -39 436.317 -39 435.644V124.303Z" stroke="#54BA7D" stroke-width="19" stroke-linejoin="round"/>
</svg>
