<svg width="248" height="436" viewBox="0 0 248 436" fill="none" xmlns="http://www.w3.org/2000/svg">
<path d="M0 97L56 77V133L0 153V97Z" fill="#5855FE"/>
<path d="M0 257L56 237V293L0 313V257Z" fill="#5855FE"/>
<path d="M0 177L56 157V213L0 233V177Z" fill="#5855FE"/>
<path d="M0 337L56 317V373L0 393V337Z" fill="#5855FE"/>
<path d="M80 151L136 131V187L80 207V151Z" fill="#5855FE"/>
<path d="M80 311L136 291V347L80 367V311Z" fill="#5855FE"/>
<path d="M80 71L136 51V107L80 127V71Z" fill="#5855FE"/>
<path d="M80 231L136 211V267L80 287V231Z" fill="#5855FE"/>
<path d="M157 46L213 26V82L157 102V46Z" fill="#5855FE"/>
<path d="M157 206L213 186V242L157 262V206Z" fill="#5855FE"/>
<path d="M157 126L213 106V162L157 182V126Z" fill="#5855FE"/>
<path d="M157 286L213 266V322L157 342V286Z" fill="#5855FE"/>
<path d="M237 100L293 80V136L237 156V100Z" fill="#5855FE"/>
<path d="M237 260L293 240V296L237 316V260Z" fill="#5855FE"/>
<path d="M237 20L293 0V56L237 76V20Z" fill="#5855FE"/>
<path d="M237 180L293 160V216L237 236V180Z" fill="#5855FE"/>
<path d="M27 113.303C27 112.865 27.2857 112.477 27.7046 112.348L292.705 30.4006C293.348 30.2017 294 30.6826 294 31.356V342.697C294 343.135 293.714 343.523 293.295 343.652L28.2954 425.599C27.6521 425.798 27 425.317 27 424.644V113.303Z" stroke="#54BA7D" stroke-width="19" stroke-linejoin="round"/>
</svg>
