<svg width="98" height="265" viewBox="0 0 98 265" fill="none" xmlns="http://www.w3.org/2000/svg">
<path d="M0 65.4071L37.6519 51.9211V89.6819L0 103.168V65.4071Z" fill="#54BA7D"/>
<path d="M0 173.295L37.6519 159.809V197.57L0 211.056V173.295Z" fill="#54BA7D"/>
<path d="M0 119.351L37.6519 105.865V143.626L0 157.112V119.351Z" fill="#54BA7D"/>
<path d="M0 227.239L37.6519 213.753V251.514L0 265V227.239Z" fill="#54BA7D"/>
<path d="M53.7884 101.819L91.4403 88.3333V126.094L53.7884 139.58V101.819Z" fill="#54BA7D"/>
<path d="M53.7884 209.707L91.4403 196.221V233.982L53.7884 247.468V209.707Z" fill="#54BA7D"/>
<path d="M53.7884 47.8753L91.4403 34.3893V72.1501L53.7884 85.6361V47.8753Z" fill="#54BA7D"/>
<path d="M53.7884 155.763L91.4403 142.277V180.038L53.7884 193.524V155.763Z" fill="#54BA7D"/>
<path d="M105.56 31.0178L143.212 17.5318V55.2926L105.56 68.7786V31.0178Z" fill="#54BA7D"/>
<path d="M105.56 138.906L143.212 125.42V163.181L105.56 176.667V138.906Z" fill="#54BA7D"/>
<path d="M105.56 84.9618L143.212 71.4758V109.237L105.56 122.723V84.9618Z" fill="#54BA7D"/>
<path d="M105.56 192.85L143.212 179.364V217.125L105.56 230.611V192.85Z" fill="#54BA7D"/>
<path d="M159.348 67.43L197 53.944V91.7048L159.348 105.191V67.43Z" fill="#54BA7D"/>
<path d="M159.348 175.318L197 161.832V199.593L159.348 213.079V175.318Z" fill="#54BA7D"/>
<path d="M159.348 13.486L197 0V37.7608L159.348 51.2468V13.486Z" fill="#54BA7D"/>
<path d="M159.348 121.374L197 107.888V145.649L159.348 159.135V121.374Z" fill="#54BA7D"/>
</svg>
